<mxfile host="Electron" modified="2023-10-26T16:26:30.803Z" agent="Mozilla/5.0 (Windows NT 10.0; Win64; x64) AppleWebKit/537.36 (KHTML, like Gecko) draw.io/22.0.3 Chrome/114.0.5735.289 Electron/25.8.4 Safari/537.36" etag="niTrdywpPI6RXRjEaY3Z" version="22.0.3" type="device">
  <diagram name="Seite-1" id="4Qbm9Z3OAa8C5ocgD23z">
    <mxGraphModel dx="924" dy="827" grid="1" gridSize="10" guides="1" tooltips="1" connect="1" arrows="1" fold="1" page="1" pageScale="1" pageWidth="827" pageHeight="1169" math="0" shadow="0">
      <root>
        <mxCell id="0" />
        <mxCell id="1" parent="0" />
        <mxCell id="-7op--P6MWLCIfXVjXoU-103" value="" style="endArrow=none;startArrow=none;endFill=0;startFill=0;endSize=8;html=1;verticalAlign=bottom;labelBackgroundColor=none;strokeWidth=3;rounded=0;entryX=0;entryY=1;entryDx=0;entryDy=0;entryPerimeter=0;exitX=0;exitY=0.75;exitDx=0;exitDy=0;strokeColor=#F09926;" parent="1" source="-7op--P6MWLCIfXVjXoU-100" target="-7op--P6MWLCIfXVjXoU-89" edge="1">
          <mxGeometry width="160" relative="1" as="geometry">
            <mxPoint x="667.87" y="727.5" as="sourcePoint" />
            <mxPoint x="665.87" y="825.5" as="targetPoint" />
          </mxGeometry>
        </mxCell>
        <mxCell id="-7op--P6MWLCIfXVjXoU-2" value="sd Registration" style="shape=umlFrame;whiteSpace=wrap;html=1;pointerEvents=0;width=80;height=30;" parent="1" vertex="1">
          <mxGeometry x="50" y="30" width="1150" height="420" as="geometry" />
        </mxCell>
        <mxCell id="-7op--P6MWLCIfXVjXoU-4" value=":RegistrationController" style="html=1;align=center;verticalAlign=middle;dashed=0;whiteSpace=wrap;" parent="1" vertex="1">
          <mxGeometry x="413" y="220" width="120" height="70" as="geometry" />
        </mxCell>
        <mxCell id="-7op--P6MWLCIfXVjXoU-7" value="" style="html=1;verticalAlign=bottom;labelBackgroundColor=none;endArrow=open;endFill=0;rounded=0;exitX=0.5;exitY=0.5;exitDx=0;exitDy=0;exitPerimeter=0;entryX=-0.006;entryY=0.452;entryDx=0;entryDy=0;entryPerimeter=0;" parent="1" source="-7op--P6MWLCIfXVjXoU-13" target="YzzQ-6Lrq13zbrgK7W9r-4" edge="1">
          <mxGeometry x="0.0037" width="160" relative="1" as="geometry">
            <mxPoint x="160" y="270" as="sourcePoint" />
            <mxPoint x="220" y="265" as="targetPoint" />
            <mxPoint as="offset" />
          </mxGeometry>
        </mxCell>
        <mxCell id="-7op--P6MWLCIfXVjXoU-8" value=":Server / RegistrationService" style="html=1;align=center;verticalAlign=middle;dashed=0;whiteSpace=wrap;" parent="1" vertex="1">
          <mxGeometry x="673" y="230" width="110" height="70" as="geometry" />
        </mxCell>
        <mxCell id="-7op--P6MWLCIfXVjXoU-13" value="User" style="shape=umlActor;verticalLabelPosition=bottom;verticalAlign=top;html=1;" parent="1" vertex="1">
          <mxGeometry x="60" y="235" width="30" height="60" as="geometry" />
        </mxCell>
        <mxCell id="-7op--P6MWLCIfXVjXoU-15" value=":Database" style="html=1;align=center;verticalAlign=middle;dashed=0;whiteSpace=wrap;" parent="1" vertex="1">
          <mxGeometry x="943" y="230" width="110" height="70" as="geometry" />
        </mxCell>
        <mxCell id="-7op--P6MWLCIfXVjXoU-16" value="1.2:saveUser(User user)" style="html=1;verticalAlign=bottom;labelBackgroundColor=none;endArrow=open;endFill=0;rounded=0;exitX=1.004;exitY=0.456;exitDx=0;exitDy=0;entryX=-0.017;entryY=0.463;entryDx=0;entryDy=0;entryPerimeter=0;exitPerimeter=0;" parent="1" source="-7op--P6MWLCIfXVjXoU-8" target="-7op--P6MWLCIfXVjXoU-15" edge="1">
          <mxGeometry x="0.0026" width="160" relative="1" as="geometry">
            <mxPoint x="743" y="259.65" as="sourcePoint" />
            <mxPoint x="893.33" y="260.34999999999997" as="targetPoint" />
            <mxPoint as="offset" />
          </mxGeometry>
        </mxCell>
        <mxCell id="-7op--P6MWLCIfXVjXoU-46" value="" style="endArrow=none;startArrow=none;endFill=0;startFill=0;endSize=8;html=1;verticalAlign=bottom;labelBackgroundColor=none;strokeWidth=3;rounded=0;entryX=0.513;entryY=0.633;entryDx=0;entryDy=0;entryPerimeter=0;strokeColor=#F09926;exitX=-0.003;exitY=0.657;exitDx=0;exitDy=0;exitPerimeter=0;" parent="1" source="YzzQ-6Lrq13zbrgK7W9r-4" target="-7op--P6MWLCIfXVjXoU-13" edge="1">
          <mxGeometry width="160" relative="1" as="geometry">
            <mxPoint x="210" y="273" as="sourcePoint" />
            <mxPoint x="230" y="356" as="targetPoint" />
          </mxGeometry>
        </mxCell>
        <mxCell id="-7op--P6MWLCIfXVjXoU-49" value="" style="endArrow=none;startArrow=none;endFill=0;startFill=0;endSize=8;html=1;verticalAlign=bottom;labelBackgroundColor=none;strokeWidth=3;rounded=0;entryX=0.996;entryY=0.789;entryDx=0;entryDy=0;strokeColor=#F09926;exitX=-0.013;exitY=0.583;exitDx=0;exitDy=0;exitPerimeter=0;entryPerimeter=0;" parent="1" target="-7op--P6MWLCIfXVjXoU-4" edge="1">
          <mxGeometry width="160" relative="1" as="geometry">
            <mxPoint x="671.5699999999999" y="280" as="sourcePoint" />
            <mxPoint x="523" y="279.19" as="targetPoint" />
          </mxGeometry>
        </mxCell>
        <mxCell id="-7op--P6MWLCIfXVjXoU-50" value="" style="endArrow=none;startArrow=none;endFill=0;startFill=0;endSize=8;html=1;verticalAlign=bottom;labelBackgroundColor=none;strokeWidth=3;rounded=0;entryX=1.024;entryY=0.589;entryDx=0;entryDy=0;entryPerimeter=0;strokeColor=#F09926;exitX=-0.005;exitY=0.594;exitDx=0;exitDy=0;exitPerimeter=0;" parent="1" source="-7op--P6MWLCIfXVjXoU-15" target="-7op--P6MWLCIfXVjXoU-8" edge="1">
          <mxGeometry width="160" relative="1" as="geometry">
            <mxPoint x="737" y="248" as="sourcePoint" />
            <mxPoint x="636" y="142" as="targetPoint" />
          </mxGeometry>
        </mxCell>
        <mxCell id="-7op--P6MWLCIfXVjXoU-71" value="&lt;font style=&quot;font-size: 9px;&quot;&gt;1.1:requestRegistration(User user)&lt;/font&gt;" style="html=1;verticalAlign=bottom;labelBackgroundColor=none;endArrow=open;endFill=0;rounded=0;exitX=0.994;exitY=0.654;exitDx=0;exitDy=0;entryX=0.018;entryY=0.086;entryDx=0;entryDy=0;entryPerimeter=0;exitPerimeter=0;" parent="1" source="-7op--P6MWLCIfXVjXoU-4" edge="1">
          <mxGeometry x="-0.0057" width="160" relative="1" as="geometry">
            <mxPoint x="522.67" y="270" as="sourcePoint" />
            <mxPoint x="673" y="270.7" as="targetPoint" />
            <mxPoint as="offset" />
          </mxGeometry>
        </mxCell>
        <mxCell id="-7op--P6MWLCIfXVjXoU-73" value="sd Add Friend" style="shape=umlFrame;whiteSpace=wrap;html=1;pointerEvents=0;width=80;height=30;" parent="1" vertex="1">
          <mxGeometry x="40" y="520" width="1260" height="490" as="geometry" />
        </mxCell>
        <mxCell id="-7op--P6MWLCIfXVjXoU-74" value="User1" style="shape=umlActor;verticalLabelPosition=bottom;verticalAlign=top;html=1;" parent="1" vertex="1">
          <mxGeometry x="452.23" y="910" width="30" height="60" as="geometry" />
        </mxCell>
        <mxCell id="-7op--P6MWLCIfXVjXoU-75" value="1:addFriend(User user2)" style="html=1;verticalAlign=bottom;labelBackgroundColor=none;endArrow=open;endFill=0;rounded=0;entryX=-0.001;entryY=0.34;entryDx=0;entryDy=0;entryPerimeter=0;exitX=1.003;exitY=0.406;exitDx=0;exitDy=0;exitPerimeter=0;" parent="1" source="YzzQ-6Lrq13zbrgK7W9r-7" target="-7op--P6MWLCIfXVjXoU-77" edge="1">
          <mxGeometry x="0.0038" width="160" relative="1" as="geometry">
            <mxPoint x="589.87" y="944" as="sourcePoint" />
            <mxPoint x="808.05" y="945" as="targetPoint" />
            <mxPoint as="offset" />
          </mxGeometry>
        </mxCell>
        <mxCell id="-7op--P6MWLCIfXVjXoU-76" value="" style="endArrow=none;startArrow=none;endFill=0;startFill=0;endSize=8;html=1;verticalAlign=bottom;labelBackgroundColor=none;strokeWidth=3;rounded=0;entryX=-0.027;entryY=0.514;entryDx=0;entryDy=0;entryPerimeter=0;strokeColor=#F09926;exitX=0.999;exitY=0.617;exitDx=0;exitDy=0;exitPerimeter=0;" parent="1" source="YzzQ-6Lrq13zbrgK7W9r-7" target="-7op--P6MWLCIfXVjXoU-77" edge="1">
          <mxGeometry width="160" relative="1" as="geometry">
            <mxPoint x="589.87" y="956" as="sourcePoint" />
            <mxPoint x="809.05" y="956" as="targetPoint" />
          </mxGeometry>
        </mxCell>
        <mxCell id="-7op--P6MWLCIfXVjXoU-77" value=":FriendlistController" style="html=1;align=center;verticalAlign=middle;dashed=0;whiteSpace=wrap;" parent="1" vertex="1">
          <mxGeometry x="811.05" y="920" width="128.82" height="70" as="geometry" />
        </mxCell>
        <mxCell id="-7op--P6MWLCIfXVjXoU-80" value="" style="endArrow=none;startArrow=none;endFill=0;startFill=0;endSize=8;html=1;verticalAlign=bottom;labelBackgroundColor=none;strokeWidth=3;rounded=0;exitX=1;exitY=0.5;exitDx=0;exitDy=0;strokeColor=#F09926;entryX=0;entryY=0.5;entryDx=0;entryDy=0;entryPerimeter=0;" parent="1" source="-7op--P6MWLCIfXVjXoU-77" target="-7op--P6MWLCIfXVjXoU-82" edge="1">
          <mxGeometry width="160" relative="1" as="geometry">
            <mxPoint x="922.05" y="960.5" as="sourcePoint" />
            <mxPoint x="1141.0499999999997" y="955" as="targetPoint" />
          </mxGeometry>
        </mxCell>
        <mxCell id="-7op--P6MWLCIfXVjXoU-81" value="&lt;font style=&quot;font-size: 9px;&quot;&gt;1.1:sendFriendRequest(User user2)&lt;/font&gt;" style="html=1;verticalAlign=bottom;labelBackgroundColor=none;endArrow=open;endFill=0;rounded=0;exitX=0.982;exitY=0.381;exitDx=0;exitDy=0;exitPerimeter=0;entryX=0.006;entryY=0.376;entryDx=0;entryDy=0;entryPerimeter=0;" parent="1" source="-7op--P6MWLCIfXVjXoU-77" target="-7op--P6MWLCIfXVjXoU-82" edge="1">
          <mxGeometry x="-0.0551" y="7" width="160" relative="1" as="geometry">
            <mxPoint x="921.05" y="951.5" as="sourcePoint" />
            <mxPoint x="1141.0499999999997" y="947" as="targetPoint" />
            <mxPoint as="offset" />
          </mxGeometry>
        </mxCell>
        <mxCell id="-7op--P6MWLCIfXVjXoU-82" value=":Server / FriendlistService" style="html=1;align=center;verticalAlign=middle;dashed=0;whiteSpace=wrap;" parent="1" vertex="1">
          <mxGeometry x="1099.87" y="920" width="100.13" height="70" as="geometry" />
        </mxCell>
        <mxCell id="-7op--P6MWLCIfXVjXoU-83" value=":Database" style="html=1;align=center;verticalAlign=middle;dashed=0;whiteSpace=wrap;" parent="1" vertex="1">
          <mxGeometry x="1010" y="590" width="110" height="70" as="geometry" />
        </mxCell>
        <mxCell id="-7op--P6MWLCIfXVjXoU-84" value="" style="endArrow=none;startArrow=none;endFill=0;startFill=0;endSize=8;html=1;verticalAlign=bottom;labelBackgroundColor=none;strokeWidth=3;rounded=0;strokeColor=#F09926;exitX=0;exitY=0.5;exitDx=0;exitDy=0;entryX=1;entryY=0.5;entryDx=0;entryDy=0;" parent="1" source="-7op--P6MWLCIfXVjXoU-83" target="-7op--P6MWLCIfXVjXoU-88" edge="1">
          <mxGeometry width="160" relative="1" as="geometry">
            <mxPoint x="1008.93" y="642.4999999999998" as="sourcePoint" />
            <mxPoint x="859.87" y="642.4999999999998" as="targetPoint" />
          </mxGeometry>
        </mxCell>
        <mxCell id="-7op--P6MWLCIfXVjXoU-85" value="1.3:checkedID(Long user2)" style="html=1;verticalAlign=bottom;labelBackgroundColor=none;endArrow=open;endFill=0;rounded=0;exitX=-0.001;exitY=0.388;exitDx=0;exitDy=0;exitPerimeter=0;entryX=1.004;entryY=0.399;entryDx=0;entryDy=0;entryPerimeter=0;" parent="1" edge="1">
          <mxGeometry x="-0.0753" y="-20" width="160" relative="1" as="geometry">
            <mxPoint x="1008.82" y="617.1599999999999" as="sourcePoint" />
            <mxPoint x="860.3100000000001" y="617.9300000000001" as="targetPoint" />
            <mxPoint as="offset" />
          </mxGeometry>
        </mxCell>
        <mxCell id="-7op--P6MWLCIfXVjXoU-86" value="" style="endArrow=none;startArrow=none;endFill=0;startFill=0;endSize=8;html=1;verticalAlign=bottom;labelBackgroundColor=none;strokeWidth=3;rounded=0;entryX=0.905;entryY=0;entryDx=0;entryDy=0;entryPerimeter=0;strokeColor=#F09926;exitX=0.9;exitY=1.006;exitDx=0;exitDy=0;exitPerimeter=0;" parent="1" target="-7op--P6MWLCIfXVjXoU-82" edge="1">
          <mxGeometry width="160" relative="1" as="geometry">
            <mxPoint x="1107.9300000000003" y="660.4199999999998" as="sourcePoint" />
            <mxPoint x="1108.04" y="801" as="targetPoint" />
            <Array as="points" />
          </mxGeometry>
        </mxCell>
        <mxCell id="-7op--P6MWLCIfXVjXoU-87" value="1.2:searchUser(User user2)" style="html=1;verticalAlign=bottom;labelBackgroundColor=none;endArrow=open;endFill=0;rounded=0;entryX=1;entryY=1;entryDx=0;entryDy=0;exitX=1;exitY=0;exitDx=0;exitDy=0;" parent="1" source="-7op--P6MWLCIfXVjXoU-82" edge="1">
          <mxGeometry x="0.1111" y="-30" width="160" relative="1" as="geometry">
            <mxPoint x="1119.87" y="800" as="sourcePoint" />
            <mxPoint x="1118.9299999999998" y="659.9999999999998" as="targetPoint" />
            <mxPoint as="offset" />
          </mxGeometry>
        </mxCell>
        <mxCell id="-7op--P6MWLCIfXVjXoU-88" value=":Server / FriendlistService" style="html=1;align=center;verticalAlign=middle;dashed=0;whiteSpace=wrap;" parent="1" vertex="1">
          <mxGeometry x="750.94" y="590" width="110" height="70" as="geometry" />
        </mxCell>
        <mxCell id="-7op--P6MWLCIfXVjXoU-89" value="User2" style="shape=umlActor;verticalLabelPosition=bottom;verticalAlign=top;html=1;" parent="1" vertex="1">
          <mxGeometry x="519.73" y="720" width="30" height="60" as="geometry" />
        </mxCell>
        <mxCell id="-7op--P6MWLCIfXVjXoU-90" value="" style="endArrow=none;startArrow=none;endFill=0;startFill=0;endSize=8;html=1;verticalAlign=bottom;labelBackgroundColor=none;strokeWidth=3;rounded=0;exitX=0;exitY=0.75;exitDx=0;exitDy=0;strokeColor=#F09926;entryX=1.001;entryY=0.638;entryDx=0;entryDy=0;entryPerimeter=0;" parent="1" source="-7op--P6MWLCIfXVjXoU-88" target="YzzQ-6Lrq13zbrgK7W9r-3" edge="1">
          <mxGeometry width="160" relative="1" as="geometry">
            <mxPoint x="272.87" y="441" as="sourcePoint" />
            <mxPoint x="589.87" y="640" as="targetPoint" />
          </mxGeometry>
        </mxCell>
        <mxCell id="-7op--P6MWLCIfXVjXoU-91" value="1.4.1:sendInvitation(Long user1)" style="html=1;verticalAlign=bottom;labelBackgroundColor=none;endArrow=open;endFill=0;rounded=0;exitX=0;exitY=0.5;exitDx=0;exitDy=0;entryX=0.995;entryY=0.329;entryDx=0;entryDy=0;entryPerimeter=0;" parent="1" source="-7op--P6MWLCIfXVjXoU-88" target="YzzQ-6Lrq13zbrgK7W9r-3" edge="1">
          <mxGeometry x="-0.1197" y="-29" width="160" relative="1" as="geometry">
            <mxPoint x="549.87" y="440" as="sourcePoint" />
            <mxPoint x="579.87" y="620" as="targetPoint" />
            <mxPoint as="offset" />
          </mxGeometry>
        </mxCell>
        <mxCell id="-7op--P6MWLCIfXVjXoU-92" value=":Server / FriendlistService" style="html=1;align=center;verticalAlign=middle;dashed=0;whiteSpace=wrap;" parent="1" vertex="1">
          <mxGeometry x="250" y="710" width="110" height="70" as="geometry" />
        </mxCell>
        <mxCell id="-7op--P6MWLCIfXVjXoU-93" value="" style="endArrow=none;startArrow=none;endFill=0;startFill=0;endSize=8;html=1;verticalAlign=bottom;labelBackgroundColor=none;strokeWidth=3;rounded=0;exitX=1.027;exitY=0.638;exitDx=0;exitDy=0;strokeColor=#F09926;entryX=0.378;entryY=0.722;entryDx=0;entryDy=0;entryPerimeter=0;exitPerimeter=0;" parent="1" source="-7op--P6MWLCIfXVjXoU-92" target="-7op--P6MWLCIfXVjXoU-89" edge="1">
          <mxGeometry width="160" relative="1" as="geometry">
            <mxPoint x="295.37" y="762.98" as="sourcePoint" />
            <mxPoint x="546.05" y="655" as="targetPoint" />
          </mxGeometry>
        </mxCell>
        <mxCell id="-7op--P6MWLCIfXVjXoU-94" value="1.5:acceptInvitation(Long user1)" style="html=1;verticalAlign=bottom;labelBackgroundColor=none;endArrow=open;endFill=0;rounded=0;entryX=1.005;entryY=0.4;entryDx=0;entryDy=0;exitX=0.5;exitY=0.5;exitDx=0;exitDy=0;exitPerimeter=0;entryPerimeter=0;" parent="1" source="-7op--P6MWLCIfXVjXoU-89" target="-7op--P6MWLCIfXVjXoU-92" edge="1">
          <mxGeometry x="0.1028" y="-3" width="160" relative="1" as="geometry">
            <mxPoint x="542.5300000000001" y="632" as="sourcePoint" />
            <mxPoint x="289.87" y="737.5" as="targetPoint" />
            <mxPoint as="offset" />
          </mxGeometry>
        </mxCell>
        <mxCell id="-7op--P6MWLCIfXVjXoU-95" value=":Database&amp;nbsp;" style="html=1;align=center;verticalAlign=middle;dashed=0;whiteSpace=wrap;" parent="1" vertex="1">
          <mxGeometry x="279.8700000000001" y="910" width="110" height="70" as="geometry" />
        </mxCell>
        <mxCell id="-7op--P6MWLCIfXVjXoU-98" value="" style="endArrow=none;startArrow=none;endFill=0;startFill=0;endSize=8;html=1;verticalAlign=bottom;labelBackgroundColor=none;strokeWidth=3;rounded=0;exitX=0.75;exitY=1;exitDx=0;exitDy=0;strokeColor=#F09926;" parent="1" source="-7op--P6MWLCIfXVjXoU-92" target="-7op--P6MWLCIfXVjXoU-95" edge="1">
          <mxGeometry width="160" relative="1" as="geometry">
            <mxPoint x="333.12999999999977" y="800.9799999999998" as="sourcePoint" />
            <mxPoint x="530.87" y="880" as="targetPoint" />
          </mxGeometry>
        </mxCell>
        <mxCell id="-7op--P6MWLCIfXVjXoU-99" value="1.6.1:updateFriendlist(Long user1, Long user 2)" style="html=1;verticalAlign=bottom;labelBackgroundColor=none;endArrow=open;endFill=0;rounded=0;entryX=0.313;entryY=-0.024;entryDx=0;entryDy=0;exitX=0.565;exitY=1.007;exitDx=0;exitDy=0;entryPerimeter=0;exitPerimeter=0;" parent="1" source="-7op--P6MWLCIfXVjXoU-92" target="-7op--P6MWLCIfXVjXoU-95" edge="1">
          <mxGeometry x="-0.0754" y="-15" width="160" relative="1" as="geometry">
            <mxPoint x="314.87" y="800" as="sourcePoint" />
            <mxPoint x="149.87" y="820" as="targetPoint" />
            <mxPoint as="offset" />
          </mxGeometry>
        </mxCell>
        <mxCell id="-7op--P6MWLCIfXVjXoU-100" value=":emailService" style="html=1;align=center;verticalAlign=middle;dashed=0;whiteSpace=wrap;" parent="1" vertex="1">
          <mxGeometry x="750.94" y="760" width="110" height="70" as="geometry" />
        </mxCell>
        <mxCell id="-7op--P6MWLCIfXVjXoU-101" value="" style="endArrow=none;startArrow=none;endFill=0;startFill=0;endSize=8;html=1;verticalAlign=bottom;labelBackgroundColor=none;strokeWidth=3;rounded=0;entryX=0.627;entryY=0.014;entryDx=0;entryDy=0;entryPerimeter=0;exitX=0.648;exitY=1.044;exitDx=0;exitDy=0;strokeColor=#F09926;exitPerimeter=0;" parent="1" source="-7op--P6MWLCIfXVjXoU-88" target="-7op--P6MWLCIfXVjXoU-100" edge="1">
          <mxGeometry width="160" relative="1" as="geometry">
            <mxPoint x="803.87" y="738" as="sourcePoint" />
            <mxPoint x="632.87" y="735" as="targetPoint" />
          </mxGeometry>
        </mxCell>
        <mxCell id="-7op--P6MWLCIfXVjXoU-102" value="1.4.2:sendEmailInfomation(Long user1)" style="html=1;verticalAlign=bottom;labelBackgroundColor=none;endArrow=open;endFill=0;rounded=0;exitX=0.5;exitY=1;exitDx=0;exitDy=0;entryX=0.5;entryY=0;entryDx=0;entryDy=0;" parent="1" source="-7op--P6MWLCIfXVjXoU-88" target="-7op--P6MWLCIfXVjXoU-100" edge="1">
          <mxGeometry x="-0.0729" y="-16" width="160" relative="1" as="geometry">
            <mxPoint x="803.87" y="720" as="sourcePoint" />
            <mxPoint x="629.87" y="723" as="targetPoint" />
            <mxPoint as="offset" />
          </mxGeometry>
        </mxCell>
        <mxCell id="-7op--P6MWLCIfXVjXoU-104" value="1.4.3:sendEmail(Long user1)" style="html=1;verticalAlign=bottom;labelBackgroundColor=none;endArrow=open;endFill=0;rounded=0;exitX=0.01;exitY=0.579;exitDx=0;exitDy=0;entryX=0.321;entryY=0.811;entryDx=0;entryDy=0;exitPerimeter=0;entryPerimeter=0;" parent="1" source="-7op--P6MWLCIfXVjXoU-100" target="-7op--P6MWLCIfXVjXoU-89" edge="1">
          <mxGeometry x="0.0061" y="1" width="160" relative="1" as="geometry">
            <mxPoint x="731.05" y="814.6099999999999" as="sourcePoint" />
            <mxPoint x="630.55" y="849.5" as="targetPoint" />
            <mxPoint as="offset" />
          </mxGeometry>
        </mxCell>
        <mxCell id="-7op--P6MWLCIfXVjXoU-133" value="sd denied Friend" style="shape=umlFrame;whiteSpace=wrap;html=1;pointerEvents=0;width=80;height=30;" parent="1" vertex="1">
          <mxGeometry x="50" y="1060" width="1110" height="490" as="geometry" />
        </mxCell>
        <mxCell id="-7op--P6MWLCIfXVjXoU-134" value="User1" style="shape=umlActor;verticalLabelPosition=bottom;verticalAlign=top;html=1;" parent="1" vertex="1">
          <mxGeometry x="260" y="1445" width="30" height="60" as="geometry" />
        </mxCell>
        <mxCell id="-7op--P6MWLCIfXVjXoU-135" value="" style="html=1;verticalAlign=bottom;labelBackgroundColor=none;endArrow=open;endFill=0;rounded=0;entryX=-0.001;entryY=0.34;entryDx=0;entryDy=0;entryPerimeter=0;exitX=1;exitY=0.3333333333333333;exitDx=0;exitDy=0;exitPerimeter=0;" parent="1" source="-7op--P6MWLCIfXVjXoU-134" target="-7op--P6MWLCIfXVjXoU-137" edge="1">
          <mxGeometry x="0.0038" width="160" relative="1" as="geometry">
            <mxPoint x="242.22999999999996" y="1457" as="sourcePoint" />
            <mxPoint x="339.22999999999996" y="1465" as="targetPoint" />
            <mxPoint as="offset" />
          </mxGeometry>
        </mxCell>
        <mxCell id="-7op--P6MWLCIfXVjXoU-136" value="" style="endArrow=none;startArrow=none;endFill=0;startFill=0;endSize=8;html=1;verticalAlign=bottom;labelBackgroundColor=none;strokeWidth=3;rounded=0;entryX=-0.027;entryY=0.514;entryDx=0;entryDy=0;entryPerimeter=0;strokeColor=#F09926;" parent="1" source="-7op--P6MWLCIfXVjXoU-134" target="-7op--P6MWLCIfXVjXoU-137" edge="1">
          <mxGeometry width="160" relative="1" as="geometry">
            <mxPoint x="232.22999999999996" y="1474.8899999999999" as="sourcePoint" />
            <mxPoint x="340.22999999999996" y="1476" as="targetPoint" />
          </mxGeometry>
        </mxCell>
        <mxCell id="-7op--P6MWLCIfXVjXoU-137" value=":ChesSEP" style="html=1;align=center;verticalAlign=middle;dashed=0;whiteSpace=wrap;" parent="1" vertex="1">
          <mxGeometry x="342.22999999999996" y="1440" width="110" height="70" as="geometry" />
        </mxCell>
        <mxCell id="-7op--P6MWLCIfXVjXoU-138" value="" style="endArrow=none;startArrow=none;endFill=0;startFill=0;endSize=8;html=1;verticalAlign=bottom;labelBackgroundColor=none;strokeWidth=3;rounded=0;strokeColor=#F09926;entryX=0;entryY=0.5;entryDx=0;entryDy=0;entryPerimeter=0;exitX=1.02;exitY=0.662;exitDx=0;exitDy=0;exitPerimeter=0;" parent="1" source="YzzQ-6Lrq13zbrgK7W9r-16" target="-7op--P6MWLCIfXVjXoU-140" edge="1">
          <mxGeometry width="160" relative="1" as="geometry">
            <mxPoint x="580" y="1475" as="sourcePoint" />
            <mxPoint x="961.18" y="1475" as="targetPoint" />
          </mxGeometry>
        </mxCell>
        <mxCell id="-7op--P6MWLCIfXVjXoU-139" value="&lt;font style=&quot;font-size: 9px;&quot;&gt;1.1:sendFriendRequest(User user2)&lt;/font&gt;" style="html=1;verticalAlign=bottom;labelBackgroundColor=none;endArrow=open;endFill=0;rounded=0;entryX=0.006;entryY=0.376;entryDx=0;entryDy=0;entryPerimeter=0;exitX=1;exitY=0.5;exitDx=0;exitDy=0;" parent="1" source="YzzQ-6Lrq13zbrgK7W9r-16" target="-7op--P6MWLCIfXVjXoU-140" edge="1">
          <mxGeometry x="-0.0893" y="4" width="160" relative="1" as="geometry">
            <mxPoint x="580" y="1466" as="sourcePoint" />
            <mxPoint x="961.18" y="1467" as="targetPoint" />
            <mxPoint as="offset" />
          </mxGeometry>
        </mxCell>
        <mxCell id="-7op--P6MWLCIfXVjXoU-140" value=":Server / FriendlistService" style="html=1;align=center;verticalAlign=middle;dashed=0;whiteSpace=wrap;" parent="1" vertex="1">
          <mxGeometry x="910.13" y="1440" width="110" height="70" as="geometry" />
        </mxCell>
        <mxCell id="-7op--P6MWLCIfXVjXoU-141" value=":Database&amp;nbsp;" style="html=1;align=center;verticalAlign=middle;dashed=0;whiteSpace=wrap;" parent="1" vertex="1">
          <mxGeometry x="910.1300000000001" y="1120" width="110" height="70" as="geometry" />
        </mxCell>
        <mxCell id="-7op--P6MWLCIfXVjXoU-142" value="" style="endArrow=none;startArrow=none;endFill=0;startFill=0;endSize=8;html=1;verticalAlign=bottom;labelBackgroundColor=none;strokeWidth=3;rounded=0;strokeColor=#F09926;exitX=0;exitY=0.75;exitDx=0;exitDy=0;entryX=1;entryY=0.75;entryDx=0;entryDy=0;" parent="1" edge="1">
          <mxGeometry width="160" relative="1" as="geometry">
            <mxPoint x="909.06" y="1172.4999999999998" as="sourcePoint" />
            <mxPoint x="760" y="1172.4999999999998" as="targetPoint" />
          </mxGeometry>
        </mxCell>
        <mxCell id="-7op--P6MWLCIfXVjXoU-143" value="1.3:checkedID(Long user2)" style="html=1;verticalAlign=bottom;labelBackgroundColor=none;endArrow=open;endFill=0;rounded=0;exitX=-0.001;exitY=0.388;exitDx=0;exitDy=0;exitPerimeter=0;entryX=1.004;entryY=0.399;entryDx=0;entryDy=0;entryPerimeter=0;" parent="1" edge="1">
          <mxGeometry x="-0.0753" y="-20" width="160" relative="1" as="geometry">
            <mxPoint x="908.95" y="1147.1599999999999" as="sourcePoint" />
            <mxPoint x="760.44" y="1147.93" as="targetPoint" />
            <mxPoint as="offset" />
          </mxGeometry>
        </mxCell>
        <mxCell id="-7op--P6MWLCIfXVjXoU-144" value="" style="endArrow=none;startArrow=none;endFill=0;startFill=0;endSize=8;html=1;verticalAlign=bottom;labelBackgroundColor=none;strokeWidth=3;rounded=0;entryX=0.905;entryY=0;entryDx=0;entryDy=0;entryPerimeter=0;strokeColor=#F09926;exitX=0.9;exitY=1.006;exitDx=0;exitDy=0;exitPerimeter=0;" parent="1" target="-7op--P6MWLCIfXVjXoU-140" edge="1">
          <mxGeometry width="160" relative="1" as="geometry">
            <mxPoint x="1008.0600000000002" y="1190.4199999999998" as="sourcePoint" />
            <mxPoint x="1008.1700000000001" y="1331" as="targetPoint" />
            <Array as="points">
              <mxPoint x="1008.1700000000001" y="1291" />
            </Array>
          </mxGeometry>
        </mxCell>
        <mxCell id="-7op--P6MWLCIfXVjXoU-145" value="1.2:searchUser(User user2)" style="html=1;verticalAlign=bottom;labelBackgroundColor=none;endArrow=open;endFill=0;rounded=0;entryX=1;entryY=1;entryDx=0;entryDy=0;exitX=1;exitY=0;exitDx=0;exitDy=0;" parent="1" source="-7op--P6MWLCIfXVjXoU-140" edge="1">
          <mxGeometry x="0.12" width="160" relative="1" as="geometry">
            <mxPoint x="1020" y="1330" as="sourcePoint" />
            <mxPoint x="1019.06" y="1189.9999999999998" as="targetPoint" />
            <mxPoint as="offset" />
          </mxGeometry>
        </mxCell>
        <mxCell id="-7op--P6MWLCIfXVjXoU-146" value=":Server / FriendlistService" style="html=1;align=center;verticalAlign=middle;dashed=0;whiteSpace=wrap;" parent="1" vertex="1">
          <mxGeometry x="651.07" y="1120" width="110" height="70" as="geometry" />
        </mxCell>
        <mxCell id="-7op--P6MWLCIfXVjXoU-147" value="User2" style="shape=umlActor;verticalLabelPosition=bottom;verticalAlign=top;html=1;" parent="1" vertex="1">
          <mxGeometry x="439.87" y="1284.5" width="30" height="60" as="geometry" />
        </mxCell>
        <mxCell id="-7op--P6MWLCIfXVjXoU-148" value="" style="endArrow=none;startArrow=none;endFill=0;startFill=0;endSize=8;html=1;verticalAlign=bottom;labelBackgroundColor=none;strokeWidth=3;rounded=0;exitX=0;exitY=0.75;exitDx=0;exitDy=0;strokeColor=#F09926;entryX=1;entryY=0.5;entryDx=0;entryDy=0;" parent="1" source="-7op--P6MWLCIfXVjXoU-146" target="YzzQ-6Lrq13zbrgK7W9r-29" edge="1">
          <mxGeometry width="160" relative="1" as="geometry">
            <mxPoint x="173" y="971" as="sourcePoint" />
            <mxPoint x="490" y="1180" as="targetPoint" />
          </mxGeometry>
        </mxCell>
        <mxCell id="-7op--P6MWLCIfXVjXoU-149" value="1.4.1:sendInvitation(Long user1)" style="html=1;verticalAlign=bottom;labelBackgroundColor=none;endArrow=open;endFill=0;rounded=0;exitX=0;exitY=0.5;exitDx=0;exitDy=0;entryX=0.992;entryY=0.318;entryDx=0;entryDy=0;entryPerimeter=0;" parent="1" source="-7op--P6MWLCIfXVjXoU-146" target="YzzQ-6Lrq13zbrgK7W9r-29" edge="1">
          <mxGeometry x="-0.0729" y="-16" width="160" relative="1" as="geometry">
            <mxPoint x="450" y="970" as="sourcePoint" />
            <mxPoint x="480" y="1160" as="targetPoint" />
            <mxPoint as="offset" />
          </mxGeometry>
        </mxCell>
        <mxCell id="-7op--P6MWLCIfXVjXoU-150" value=":Server / FriendlistService" style="html=1;align=center;verticalAlign=middle;dashed=0;whiteSpace=wrap;" parent="1" vertex="1">
          <mxGeometry x="199.87" y="1295.5" width="110" height="70" as="geometry" />
        </mxCell>
        <mxCell id="-7op--P6MWLCIfXVjXoU-151" value="" style="endArrow=none;startArrow=none;endFill=0;startFill=0;endSize=8;html=1;verticalAlign=bottom;labelBackgroundColor=none;strokeWidth=3;rounded=0;exitX=1;exitY=0.5;exitDx=0;exitDy=0;strokeColor=#F09926;entryX=0.378;entryY=0.722;entryDx=0;entryDy=0;entryPerimeter=0;" parent="1" source="-7op--P6MWLCIfXVjXoU-150" target="-7op--P6MWLCIfXVjXoU-147" edge="1">
          <mxGeometry width="160" relative="1" as="geometry">
            <mxPoint x="432.87" y="1444.5" as="sourcePoint" />
            <mxPoint x="454.87" y="1325.5" as="targetPoint" />
          </mxGeometry>
        </mxCell>
        <mxCell id="-7op--P6MWLCIfXVjXoU-152" value="1.6:deniedtInvitation(Long user1)" style="html=1;verticalAlign=bottom;labelBackgroundColor=none;endArrow=open;endFill=0;rounded=0;entryX=1;entryY=0.25;entryDx=0;entryDy=0;exitX=0.5;exitY=0.5;exitDx=0;exitDy=0;exitPerimeter=0;" parent="1" source="-7op--P6MWLCIfXVjXoU-147" target="-7op--P6MWLCIfXVjXoU-150" edge="1">
          <mxGeometry x="0.5663" y="-18" width="160" relative="1" as="geometry">
            <mxPoint x="452.5300000000001" y="1337.5" as="sourcePoint" />
            <mxPoint x="422.87" y="1337.5" as="targetPoint" />
            <mxPoint as="offset" />
          </mxGeometry>
        </mxCell>
        <mxCell id="-7op--P6MWLCIfXVjXoU-156" value=":emailService" style="html=1;align=center;verticalAlign=middle;dashed=0;whiteSpace=wrap;" parent="1" vertex="1">
          <mxGeometry x="651.07" y="1290" width="110" height="70" as="geometry" />
        </mxCell>
        <mxCell id="-7op--P6MWLCIfXVjXoU-157" value="" style="endArrow=none;startArrow=none;endFill=0;startFill=0;endSize=8;html=1;verticalAlign=bottom;labelBackgroundColor=none;strokeWidth=3;rounded=0;entryX=0.627;entryY=0.014;entryDx=0;entryDy=0;entryPerimeter=0;exitX=0.648;exitY=1.044;exitDx=0;exitDy=0;strokeColor=#F09926;exitPerimeter=0;" parent="1" source="-7op--P6MWLCIfXVjXoU-146" target="-7op--P6MWLCIfXVjXoU-156" edge="1">
          <mxGeometry width="160" relative="1" as="geometry">
            <mxPoint x="704" y="1268" as="sourcePoint" />
            <mxPoint x="533" y="1265" as="targetPoint" />
          </mxGeometry>
        </mxCell>
        <mxCell id="-7op--P6MWLCIfXVjXoU-158" value="1.4.2:sendEmailInfomation(Long user1)" style="html=1;verticalAlign=bottom;labelBackgroundColor=none;endArrow=open;endFill=0;rounded=0;exitX=0.5;exitY=1;exitDx=0;exitDy=0;entryX=0.5;entryY=0;entryDx=0;entryDy=0;" parent="1" source="-7op--P6MWLCIfXVjXoU-146" target="-7op--P6MWLCIfXVjXoU-156" edge="1">
          <mxGeometry x="-0.0729" y="-16" width="160" relative="1" as="geometry">
            <mxPoint x="704" y="1250" as="sourcePoint" />
            <mxPoint x="530" y="1253" as="targetPoint" />
            <mxPoint as="offset" />
          </mxGeometry>
        </mxCell>
        <mxCell id="-7op--P6MWLCIfXVjXoU-159" value="" style="endArrow=none;startArrow=none;endFill=0;startFill=0;endSize=8;html=1;verticalAlign=bottom;labelBackgroundColor=none;strokeWidth=3;rounded=0;entryX=0.938;entryY=0.892;entryDx=0;entryDy=0;entryPerimeter=0;exitX=0.002;exitY=0.614;exitDx=0;exitDy=0;strokeColor=#F09926;exitPerimeter=0;" parent="1" source="-7op--P6MWLCIfXVjXoU-156" target="-7op--P6MWLCIfXVjXoU-147" edge="1">
          <mxGeometry width="160" relative="1" as="geometry">
            <mxPoint x="568" y="1257.5" as="sourcePoint" />
            <mxPoint x="566" y="1355.5" as="targetPoint" />
          </mxGeometry>
        </mxCell>
        <mxCell id="-7op--P6MWLCIfXVjXoU-160" value="1.4.3:sendEmail(Long user1)" style="html=1;verticalAlign=bottom;labelBackgroundColor=none;endArrow=open;endFill=0;rounded=0;exitX=0.604;exitY=0.739;exitDx=0;exitDy=0;entryX=0;entryY=0.5;entryDx=0;entryDy=0;exitPerimeter=0;" parent="1" source="-7op--P6MWLCIfXVjXoU-147" target="-7op--P6MWLCIfXVjXoU-156" edge="1">
          <mxGeometry x="0.0107" y="12" width="160" relative="1" as="geometry">
            <mxPoint x="552" y="1254.5" as="sourcePoint" />
            <mxPoint x="552" y="1354.5" as="targetPoint" />
            <mxPoint as="offset" />
          </mxGeometry>
        </mxCell>
        <mxCell id="YzzQ-6Lrq13zbrgK7W9r-3" value=":FriendlistController" style="html=1;align=center;verticalAlign=middle;dashed=0;whiteSpace=wrap;" parent="1" vertex="1">
          <mxGeometry x="439.86999999999995" y="540" width="128.82" height="70" as="geometry" />
        </mxCell>
        <mxCell id="YzzQ-6Lrq13zbrgK7W9r-4" value=":ChesSEP" style="html=1;align=center;verticalAlign=middle;dashed=0;whiteSpace=wrap;" parent="1" vertex="1">
          <mxGeometry x="130" y="230" width="120" height="70" as="geometry" />
        </mxCell>
        <mxCell id="YzzQ-6Lrq13zbrgK7W9r-5" value="" style="endArrow=none;startArrow=none;endFill=0;startFill=0;endSize=8;html=1;verticalAlign=bottom;labelBackgroundColor=none;strokeWidth=3;rounded=0;entryX=1.022;entryY=0.678;entryDx=0;entryDy=0;strokeColor=#F09926;exitX=0;exitY=0.75;exitDx=0;exitDy=0;entryPerimeter=0;" parent="1" source="-7op--P6MWLCIfXVjXoU-4" target="YzzQ-6Lrq13zbrgK7W9r-4" edge="1">
          <mxGeometry width="160" relative="1" as="geometry">
            <mxPoint x="408.42999999999995" y="334" as="sourcePoint" />
            <mxPoint x="269.86" y="329" as="targetPoint" />
          </mxGeometry>
        </mxCell>
        <mxCell id="YzzQ-6Lrq13zbrgK7W9r-6" value="&lt;font style=&quot;font-size: 9px;&quot;&gt;1.Registration(User user)&lt;/font&gt;" style="html=1;verticalAlign=bottom;labelBackgroundColor=none;endArrow=open;endFill=0;rounded=0;exitX=1;exitY=0.5;exitDx=0;exitDy=0;entryX=0.003;entryY=0.585;entryDx=0;entryDy=0;entryPerimeter=0;" parent="1" source="YzzQ-6Lrq13zbrgK7W9r-4" target="-7op--P6MWLCIfXVjXoU-4" edge="1">
          <mxGeometry x="-0.0057" width="160" relative="1" as="geometry">
            <mxPoint x="268.86" y="320" as="sourcePoint" />
            <mxPoint x="409.86" y="324.7" as="targetPoint" />
            <mxPoint as="offset" />
          </mxGeometry>
        </mxCell>
        <mxCell id="YzzQ-6Lrq13zbrgK7W9r-7" value=":ChesSEP" style="html=1;align=center;verticalAlign=middle;dashed=0;whiteSpace=wrap;" parent="1" vertex="1">
          <mxGeometry x="532.09" y="910" width="120" height="70" as="geometry" />
        </mxCell>
        <mxCell id="YzzQ-6Lrq13zbrgK7W9r-8" value="" style="html=1;verticalAlign=bottom;labelBackgroundColor=none;endArrow=open;endFill=0;rounded=0;exitX=1;exitY=0.3333333333333333;exitDx=0;exitDy=0;exitPerimeter=0;entryX=0;entryY=0.25;entryDx=0;entryDy=0;" parent="1" source="-7op--P6MWLCIfXVjXoU-74" target="YzzQ-6Lrq13zbrgK7W9r-7" edge="1">
          <mxGeometry x="0.0037" width="160" relative="1" as="geometry">
            <mxPoint x="492.23" y="910" as="sourcePoint" />
            <mxPoint x="546.23" y="907" as="targetPoint" />
            <mxPoint as="offset" />
          </mxGeometry>
        </mxCell>
        <mxCell id="YzzQ-6Lrq13zbrgK7W9r-9" value="" style="endArrow=none;startArrow=none;endFill=0;startFill=0;endSize=8;html=1;verticalAlign=bottom;labelBackgroundColor=none;strokeWidth=3;rounded=0;entryX=0.5;entryY=0.5;entryDx=0;entryDy=0;entryPerimeter=0;strokeColor=#F09926;exitX=-0.024;exitY=0.429;exitDx=0;exitDy=0;exitPerimeter=0;" parent="1" source="YzzQ-6Lrq13zbrgK7W9r-7" target="-7op--P6MWLCIfXVjXoU-74" edge="1">
          <mxGeometry width="160" relative="1" as="geometry">
            <mxPoint x="547.23" y="854" as="sourcePoint" />
            <mxPoint x="492.23" y="851" as="targetPoint" />
          </mxGeometry>
        </mxCell>
        <mxCell id="YzzQ-6Lrq13zbrgK7W9r-10" value="" style="endArrow=none;startArrow=none;endFill=0;startFill=0;endSize=8;html=1;verticalAlign=bottom;labelBackgroundColor=none;strokeWidth=3;rounded=0;exitX=0;exitY=0.75;exitDx=0;exitDy=0;strokeColor=#F09926;entryX=0.839;entryY=0.786;entryDx=0;entryDy=0;entryPerimeter=0;" parent="1" source="YzzQ-6Lrq13zbrgK7W9r-3" target="YzzQ-6Lrq13zbrgK7W9r-12" edge="1">
          <mxGeometry width="160" relative="1" as="geometry">
            <mxPoint x="692.87" y="720" as="sourcePoint" />
            <mxPoint x="510.87" y="662" as="targetPoint" />
          </mxGeometry>
        </mxCell>
        <mxCell id="YzzQ-6Lrq13zbrgK7W9r-11" value="1.4.1:sendInvitation(Long user1)" style="html=1;verticalAlign=bottom;labelBackgroundColor=none;endArrow=open;endFill=0;rounded=0;exitX=0;exitY=0.5;exitDx=0;exitDy=0;" parent="1" source="YzzQ-6Lrq13zbrgK7W9r-3" target="YzzQ-6Lrq13zbrgK7W9r-12" edge="1">
          <mxGeometry x="-0.0729" y="-16" width="160" relative="1" as="geometry">
            <mxPoint x="692.87" y="702" as="sourcePoint" />
            <mxPoint x="509.87" y="640" as="targetPoint" />
            <mxPoint as="offset" />
          </mxGeometry>
        </mxCell>
        <mxCell id="YzzQ-6Lrq13zbrgK7W9r-12" value="User2" style="shape=umlActor;verticalLabelPosition=bottom;verticalAlign=top;html=1;" parent="1" vertex="1">
          <mxGeometry x="230" y="545" width="30" height="60" as="geometry" />
        </mxCell>
        <mxCell id="YzzQ-6Lrq13zbrgK7W9r-13" value=":FriendlistController" style="html=1;align=center;verticalAlign=middle;dashed=0;whiteSpace=wrap;" parent="1" vertex="1">
          <mxGeometry x="50" y="610" width="128.82" height="70" as="geometry" />
        </mxCell>
        <mxCell id="YzzQ-6Lrq13zbrgK7W9r-14" value="" style="endArrow=none;startArrow=none;endFill=0;startFill=0;endSize=8;html=1;verticalAlign=bottom;labelBackgroundColor=none;strokeWidth=3;rounded=0;exitX=0;exitY=0.75;exitDx=0;exitDy=0;strokeColor=#F09926;entryX=0.845;entryY=1.043;entryDx=0;entryDy=0;entryPerimeter=0;" parent="1" source="-7op--P6MWLCIfXVjXoU-92" target="YzzQ-6Lrq13zbrgK7W9r-13" edge="1">
          <mxGeometry width="160" relative="1" as="geometry">
            <mxPoint x="211" y="710" as="sourcePoint" />
            <mxPoint x="212" y="840" as="targetPoint" />
          </mxGeometry>
        </mxCell>
        <mxCell id="YzzQ-6Lrq13zbrgK7W9r-15" value="1.6.2:updateFriendlist(Long user 2)" style="html=1;verticalAlign=bottom;labelBackgroundColor=none;endArrow=open;endFill=0;rounded=0;entryX=0.994;entryY=0.924;entryDx=0;entryDy=0;exitX=-0.048;exitY=0.46;exitDx=0;exitDy=0;entryPerimeter=0;exitPerimeter=0;" parent="1" source="-7op--P6MWLCIfXVjXoU-92" target="YzzQ-6Lrq13zbrgK7W9r-13" edge="1">
          <mxGeometry x="-0.0754" y="-15" width="160" relative="1" as="geometry">
            <mxPoint x="190" y="710" as="sourcePoint" />
            <mxPoint x="192" y="838" as="targetPoint" />
            <mxPoint as="offset" />
          </mxGeometry>
        </mxCell>
        <mxCell id="YzzQ-6Lrq13zbrgK7W9r-16" value=":FriendlistController" style="html=1;align=center;verticalAlign=middle;dashed=0;whiteSpace=wrap;" parent="1" vertex="1">
          <mxGeometry x="622.1199999999999" y="1430" width="128.82" height="70" as="geometry" />
        </mxCell>
        <mxCell id="YzzQ-6Lrq13zbrgK7W9r-17" value="1:addFriend(User user2)" style="html=1;verticalAlign=bottom;labelBackgroundColor=none;endArrow=open;endFill=0;rounded=0;entryX=0;entryY=0.376;entryDx=0;entryDy=0;entryPerimeter=0;exitX=0.999;exitY=0.388;exitDx=0;exitDy=0;exitPerimeter=0;" parent="1" source="-7op--P6MWLCIfXVjXoU-137" target="YzzQ-6Lrq13zbrgK7W9r-16" edge="1">
          <mxGeometry x="0.0038" width="160" relative="1" as="geometry">
            <mxPoint x="460" y="1419" as="sourcePoint" />
            <mxPoint x="590" y="1418" as="targetPoint" />
            <mxPoint as="offset" />
          </mxGeometry>
        </mxCell>
        <mxCell id="YzzQ-6Lrq13zbrgK7W9r-18" value="" style="endArrow=none;startArrow=none;endFill=0;startFill=0;endSize=8;html=1;verticalAlign=bottom;labelBackgroundColor=none;strokeWidth=3;rounded=0;entryX=0.007;entryY=0.626;entryDx=0;entryDy=0;entryPerimeter=0;strokeColor=#F09926;exitX=1.022;exitY=0.602;exitDx=0;exitDy=0;exitPerimeter=0;" parent="1" source="-7op--P6MWLCIfXVjXoU-137" target="YzzQ-6Lrq13zbrgK7W9r-16" edge="1">
          <mxGeometry width="160" relative="1" as="geometry">
            <mxPoint x="460" y="1429" as="sourcePoint" />
            <mxPoint x="587" y="1430" as="targetPoint" />
          </mxGeometry>
        </mxCell>
        <mxCell id="YzzQ-6Lrq13zbrgK7W9r-29" value=":FriendlistController" style="html=1;align=center;verticalAlign=middle;dashed=0;whiteSpace=wrap;" parent="1" vertex="1">
          <mxGeometry x="348.99999999999994" y="1130" width="128.82" height="70" as="geometry" />
        </mxCell>
        <mxCell id="YzzQ-6Lrq13zbrgK7W9r-30" value="" style="endArrow=none;startArrow=none;endFill=0;startFill=0;endSize=8;html=1;verticalAlign=bottom;labelBackgroundColor=none;strokeWidth=3;rounded=0;exitX=0;exitY=0.75;exitDx=0;exitDy=0;strokeColor=#F09926;entryX=0.839;entryY=0.786;entryDx=0;entryDy=0;entryPerimeter=0;" parent="1" source="YzzQ-6Lrq13zbrgK7W9r-29" target="YzzQ-6Lrq13zbrgK7W9r-32" edge="1">
          <mxGeometry width="160" relative="1" as="geometry">
            <mxPoint x="594.05" y="1310" as="sourcePoint" />
            <mxPoint x="412.05" y="1252" as="targetPoint" />
          </mxGeometry>
        </mxCell>
        <mxCell id="YzzQ-6Lrq13zbrgK7W9r-31" value="1.5:sendInvitation(Long user1)" style="html=1;verticalAlign=bottom;labelBackgroundColor=none;endArrow=open;endFill=0;rounded=0;exitX=0;exitY=0.5;exitDx=0;exitDy=0;" parent="1" source="YzzQ-6Lrq13zbrgK7W9r-29" target="YzzQ-6Lrq13zbrgK7W9r-32" edge="1">
          <mxGeometry x="0.0045" y="-13" width="160" relative="1" as="geometry">
            <mxPoint x="594.05" y="1292" as="sourcePoint" />
            <mxPoint x="411.05" y="1230" as="targetPoint" />
            <mxPoint as="offset" />
          </mxGeometry>
        </mxCell>
        <mxCell id="YzzQ-6Lrq13zbrgK7W9r-32" value="User2" style="shape=umlActor;verticalLabelPosition=bottom;verticalAlign=top;html=1;" parent="1" vertex="1">
          <mxGeometry x="160" y="1130" width="30" height="60" as="geometry" />
        </mxCell>
      </root>
    </mxGraphModel>
  </diagram>
</mxfile>
